<mxfile host="Electron" agent="Mozilla/5.0 (Windows NT 10.0; Win64; x64) AppleWebKit/537.36 (KHTML, like Gecko) draw.io/26.2.2 Chrome/134.0.6998.178 Electron/35.1.2 Safari/537.36" version="26.2.2">
  <diagram name="Page-1" id="6Lrb9Zvo3NagzdbzNQK0">
    <mxGraphModel dx="858" dy="1621" grid="1" gridSize="10" guides="1" tooltips="1" connect="1" arrows="1" fold="1" page="1" pageScale="1" pageWidth="850" pageHeight="1100" math="0" shadow="0">
      <root>
        <mxCell id="0" />
        <mxCell id="1" parent="0" />
        <mxCell id="6zkZgSKief6OvJ9APfow-1" value="&lt;p style=&quot;margin:0px;margin-top:4px;text-align:center;text-decoration:underline;&quot;&gt;sarah : JobSeeker&lt;/p&gt;&lt;hr size=&quot;1&quot; style=&quot;border-style:solid;&quot;&gt;&lt;p style=&quot;margin:0px;margin-left:8px;&quot;&gt;id = &quot;JS20056&quot;&lt;/p&gt;&lt;p style=&quot;margin:0px;margin-left:8px;&quot;&gt;name = &quot;Sarah Johnson&quot;&lt;/p&gt;&lt;p style=&quot;margin:0px;margin-left:8px;&quot;&gt;email = &quot;sarah@email.com&quot;&lt;/p&gt;&lt;p style=&quot;margin:0px;margin-left:8px;&quot;&gt;phone = &quot;0679876542&lt;span style=&quot;background-color: transparent; color: light-dark(rgb(0, 0, 0), rgb(255, 255, 255));&quot;&gt;&quot;&lt;/span&gt;&lt;/p&gt;&lt;p style=&quot;margin:0px;margin-left:8px;&quot;&gt;&lt;span style=&quot;background-color: transparent; color: light-dark(rgb(0, 0, 0), rgb(255, 255, 255));&quot;&gt;availableDates = [&quot;2025-05-20&quot;,&lt;/span&gt;&lt;span style=&quot;background-color: transparent; color: light-dark(rgb(0, 0, 0), rgb(255, 255, 255));&quot;&gt;&quot;2025-05-21&quot;, &quot;2025-05-23&quot;]&lt;/span&gt;&lt;span style=&quot;background-color: transparent; color: light-dark(rgb(0, 0, 0), rgb(255, 255, 255));&quot;&gt;&amp;nbsp;&amp;nbsp;&lt;/span&gt;&lt;/p&gt;" style="verticalAlign=top;align=left;overflow=fill;html=1;whiteSpace=wrap;" vertex="1" parent="1">
          <mxGeometry x="40" y="40" width="160" height="140" as="geometry" />
        </mxCell>
        <mxCell id="6zkZgSKief6OvJ9APfow-2" value="" style="endArrow=classic;html=1;rounded=0;exitX=0.5;exitY=1;exitDx=0;exitDy=0;entryX=0.434;entryY=0;entryDx=0;entryDy=0;entryPerimeter=0;" edge="1" parent="1" source="6zkZgSKief6OvJ9APfow-1" target="6zkZgSKief6OvJ9APfow-3">
          <mxGeometry width="50" height="50" relative="1" as="geometry">
            <mxPoint x="119.58000000000004" y="160" as="sourcePoint" />
            <mxPoint x="119.5" y="230" as="targetPoint" />
          </mxGeometry>
        </mxCell>
        <mxCell id="6zkZgSKief6OvJ9APfow-3" value="&lt;p style=&quot;margin:0px;margin-top:4px;text-align:center;text-decoration:underline;&quot;&gt;sarahApp : JobApplication&lt;/p&gt;&lt;hr size=&quot;1&quot; style=&quot;border-style:solid;&quot;&gt;&lt;p style=&quot;margin:0px;margin-left:8px;&quot;&gt;id = &quot;APP60045&quot;&lt;/p&gt;&lt;p style=&quot;margin:0px;margin-left:8px;&quot;&gt;applicantId = &quot;JS20056&quot;&lt;/p&gt;&lt;p style=&quot;margin:0px;margin-left:8px;&quot;&gt;jobId = &quot;JP40098&quot;&lt;/p&gt;&lt;p style=&quot;margin:0px;margin-left:8px;&quot;&gt;status = &quot;Interview Stage&quot;&lt;/p&gt;" style="verticalAlign=top;align=left;overflow=fill;html=1;whiteSpace=wrap;" vertex="1" parent="1">
          <mxGeometry x="50" y="440" width="160" height="90" as="geometry" />
        </mxCell>
        <mxCell id="6zkZgSKief6OvJ9APfow-4" value="is candidate for" style="text;html=1;align=center;verticalAlign=middle;whiteSpace=wrap;rounded=0;" vertex="1" parent="1">
          <mxGeometry x="120" y="250" width="100" height="30" as="geometry" />
        </mxCell>
        <mxCell id="6zkZgSKief6OvJ9APfow-16" value="" style="endArrow=classic;html=1;rounded=0;exitX=0.006;exitY=0.573;exitDx=0;exitDy=0;exitPerimeter=0;entryX=1;entryY=0.589;entryDx=0;entryDy=0;entryPerimeter=0;" edge="1" parent="1" source="6zkZgSKief6OvJ9APfow-17" target="6zkZgSKief6OvJ9APfow-3">
          <mxGeometry width="50" height="50" relative="1" as="geometry">
            <mxPoint x="280" y="490" as="sourcePoint" />
            <mxPoint x="210" y="490" as="targetPoint" />
            <Array as="points" />
          </mxGeometry>
        </mxCell>
        <mxCell id="6zkZgSKief6OvJ9APfow-17" value="&lt;p style=&quot;margin:0px;margin-top:4px;text-align:center;text-decoration:underline;&quot;&gt;interview : Interview&lt;/p&gt;&lt;hr size=&quot;1&quot; style=&quot;border-style:solid;&quot;&gt;&lt;p style=&quot;margin:0px;margin-left:8px;&quot;&gt;id = &quot;INT70012&quot;&lt;/p&gt;&lt;p style=&quot;margin:0px;margin-left:8px;&quot;&gt;applicationId = &quot;APP60045&quot;&lt;/p&gt;&lt;p style=&quot;margin:0px;margin-left:8px;&quot;&gt;type = &quot;Technical Interview&quot;&lt;/p&gt;&lt;p style=&quot;margin:0px;margin-left:8px;&quot;&gt;round = 1&lt;/p&gt;&lt;p style=&quot;margin:0px;margin-left:8px;&quot;&gt;status = &quot;Scheduled&quot;&amp;nbsp;&lt;/p&gt;" style="verticalAlign=top;align=left;overflow=fill;html=1;whiteSpace=wrap;" vertex="1" parent="1">
          <mxGeometry x="320" y="430" width="160" height="110" as="geometry" />
        </mxCell>
        <mxCell id="6zkZgSKief6OvJ9APfow-18" value="&lt;p style=&quot;margin:0px;margin-top:4px;text-align:center;text-decoration:underline;&quot;&gt;alexHR : Employer&amp;nbsp;&lt;/p&gt;&lt;hr size=&quot;1&quot; style=&quot;border-style:solid;&quot;&gt;&lt;p style=&quot;margin:0px;margin-left:8px;&quot;&gt;id = &quot;EMP10034&quot;&lt;/p&gt;&lt;p style=&quot;margin:0px;margin-left:8px;&quot;&gt;&amp;nbsp;name = &quot;Alex Rodriguez&quot;&lt;/p&gt;&lt;p style=&quot;margin:0px;margin-left:8px;&quot;&gt;company = &quot;GrowthTech Ltd.&quot;&lt;/p&gt;&lt;p style=&quot;margin:0px;margin-left:8px;&quot;&gt;email = &quot;alex@growthtech.com&quot;&lt;/p&gt;&lt;p style=&quot;margin:0px;margin-left:8px;&quot;&gt;role = &quot;HR Manager&quot;&lt;/p&gt;" style="verticalAlign=top;align=left;overflow=fill;html=1;whiteSpace=wrap;" vertex="1" parent="1">
          <mxGeometry x="330" y="-10" width="160" height="140" as="geometry" />
        </mxCell>
        <mxCell id="6zkZgSKief6OvJ9APfow-19" value="&lt;p style=&quot;margin:0px;margin-top:4px;text-align:center;text-decoration:underline;&quot;&gt;dataJob : JobPosting&lt;/p&gt;&lt;hr size=&quot;1&quot; style=&quot;border-style:solid;&quot;&gt;&lt;p style=&quot;margin:0px;margin-left:8px;&quot;&gt;id = &quot;JP40098&quot;&lt;/p&gt;&lt;p style=&quot;margin:0px;margin-left:8px;&quot;&gt;title = &quot;Data Analyst&quot;&lt;/p&gt;&lt;p style=&quot;margin:0px;margin-left:8px;&quot;&gt;company = &quot;GrowthTech Ltd.&quot;&lt;/p&gt;&lt;p style=&quot;margin:0px;margin-left:8px;&quot;&gt;status = &quot;Interviewing&quot;&lt;/p&gt;" style="verticalAlign=top;align=left;overflow=fill;html=1;whiteSpace=wrap;" vertex="1" parent="1">
          <mxGeometry x="330" y="210" width="160" height="110" as="geometry" />
        </mxCell>
        <mxCell id="6zkZgSKief6OvJ9APfow-20" value="" style="endArrow=classic;html=1;rounded=0;entryX=0.5;entryY=0;entryDx=0;entryDy=0;exitX=0.438;exitY=1.007;exitDx=0;exitDy=0;exitPerimeter=0;" edge="1" parent="1" source="6zkZgSKief6OvJ9APfow-19" target="6zkZgSKief6OvJ9APfow-17">
          <mxGeometry width="50" height="50" relative="1" as="geometry">
            <mxPoint x="404" y="353" as="sourcePoint" />
            <mxPoint x="310" y="350" as="targetPoint" />
          </mxGeometry>
        </mxCell>
        <mxCell id="6zkZgSKief6OvJ9APfow-21" value="" style="endArrow=classic;html=1;rounded=0;" edge="1" parent="1">
          <mxGeometry width="50" height="50" relative="1" as="geometry">
            <mxPoint x="400" y="130" as="sourcePoint" />
            <mxPoint x="400" y="210" as="targetPoint" />
          </mxGeometry>
        </mxCell>
        <mxCell id="6zkZgSKief6OvJ9APfow-22" value="&lt;p style=&quot;margin:0px;margin-top:4px;text-align:center;text-decoration:underline;&quot;&gt;&amp;nbsp;slot : TimeSlot&lt;/p&gt;&lt;hr size=&quot;1&quot; style=&quot;border-style:solid;&quot;&gt;&lt;p style=&quot;margin:0px;margin-left:8px;&quot;&gt;id = &quot;TS80034&quot;&lt;/p&gt;&lt;p style=&quot;margin:0px;margin-left:8px;&quot;&gt;date = &quot;2025-05-21&quot;&lt;/p&gt;&lt;p style=&quot;margin:0px;margin-left:8px;&quot;&gt;startTime = &quot;14:00&quot;&lt;/p&gt;&lt;p style=&quot;margin:0px;margin-left:8px;&quot;&gt;endTime = &quot;15:00&quot;&lt;/p&gt;&lt;p style=&quot;margin:0px;margin-left:8px;&quot;&gt;status = &quot;Confirmed&quot;&lt;/p&gt;&lt;p style=&quot;margin:0px;margin-left:8px;&quot;&gt;calendarEventId = &quot;CAL9087&quot;&lt;/p&gt;" style="verticalAlign=top;align=left;overflow=fill;html=1;whiteSpace=wrap;" vertex="1" parent="1">
          <mxGeometry x="320" y="600" width="160" height="130" as="geometry" />
        </mxCell>
        <mxCell id="6zkZgSKief6OvJ9APfow-23" value="&lt;p style=&quot;margin:0px;margin-top:4px;text-align:center;text-decoration:underline;&quot;&gt;&amp;nbsp;mike : Interviewer&lt;/p&gt;&lt;hr size=&quot;1&quot; style=&quot;border-style:solid;&quot;&gt;&lt;p style=&quot;margin:0px;margin-left:8px;&quot;&gt;id = &quot;INT10023&quot;&lt;/p&gt;&lt;p style=&quot;margin:0px;margin-left:8px;&quot;&gt;name = &quot;Mike&quot;&lt;/p&gt;&lt;p style=&quot;margin:0px;margin-left:8px;&quot;&gt;email = &quot;mike@growthtech.com&quot;&lt;/p&gt;&lt;p style=&quot;margin:0px;margin-left:8px;&quot;&gt;&amp;nbsp;role = &quot;Senior Data Analyst&quot;&lt;/p&gt;&lt;p style=&quot;margin:0px;margin-left:8px;&quot;&gt;availableDates = [&quot;2025-05-21&quot;,&quot;2025-05-22&quot;]&lt;/p&gt;" style="verticalAlign=top;align=left;overflow=fill;html=1;whiteSpace=wrap;" vertex="1" parent="1">
          <mxGeometry x="50" y="590" width="160" height="130" as="geometry" />
        </mxCell>
        <mxCell id="6zkZgSKief6OvJ9APfow-24" value="&lt;p style=&quot;margin:0px;margin-top:4px;text-align:center;text-decoration:underline;&quot;&gt;&lt;span style=&quot;background-color: transparent; color: light-dark(rgb(0, 0, 0), rgb(255, 255, 255)); text-align: left;&quot;&gt;meetingRoom : Location&lt;/span&gt;&lt;span style=&quot;color: rgba(0, 0, 0, 0); font-family: monospace; font-size: 0px; text-wrap-mode: nowrap; background-color: transparent; text-align: left;&quot;&gt;%3CmxGraphModel%3E%3Croot%3E%3CmxCell%20id%3D%220%22%2F%3E%3CmxCell%20id%3D%221%22%20parent%3D%220%22%2F%3E%3CmxCell%20id%3D%222%22%20value%3D%22%26lt%3Bp%20style%3D%26quot%3Bmargin%3A0px%3Bmargin-top%3A4px%3Btext-align%3Acenter%3Btext-decoration%3Aunderline%3B%26quot%3B%26gt%3B%26amp%3Bnbsp%3Bslot%20%3A%20TimeSlot%26lt%3B%2Fp%26gt%3B%26lt%3Bhr%20size%3D%26quot%3B1%26quot%3B%20style%3D%26quot%3Bborder-style%3Asolid%3B%26quot%3B%26gt%3B%26lt%3Bp%20style%3D%26quot%3Bmargin%3A0px%3Bmargin-left%3A8px%3B%26quot%3B%26gt%3Bid%20%3D%20%26quot%3BTS80034%26quot%3B%26lt%3B%2Fp%26gt%3B%26lt%3Bp%20style%3D%26quot%3Bmargin%3A0px%3Bmargin-left%3A8px%3B%26quot%3B%26gt%3Bdate%20%3D%20%26quot%3B2025-05-21%26quot%3B%26lt%3B%2Fp%26gt%3B%26lt%3Bp%20style%3D%26quot%3Bmargin%3A0px%3Bmargin-left%3A8px%3B%26quot%3B%26gt%3BstartTime%20%3D%20%26quot%3B14%3A00%26quot%3B%26lt%3B%2Fp%26gt%3B%26lt%3Bp%20style%3D%26quot%3Bmargin%3A0px%3Bmargin-left%3A8px%3B%26quot%3B%26gt%3BendTime%20%3D%20%26quot%3B15%3A00%26quot%3B%26lt%3B%2Fp%26gt%3B%26lt%3Bp%20style%3D%26quot%3Bmargin%3A0px%3Bmargin-left%3A8px%3B%26quot%3B%26gt%3Bstatus%20%3D%20%26quot%3BConfirmed%26quot%3B%26lt%3B%2Fp%26gt%3B%26lt%3Bp%20style%3D%26quot%3Bmargin%3A0px%3Bmargin-left%3A8px%3B%26quot%3B%26gt%3BcalendarEventId%20%3D%20%26quot%3BCAL9087%26quot%3B%26lt%3B%2Fp%26gt%3B%22%20style%3D%22verticalAlign%3Dtop%3Balign%3Dleft%3Boverflow%3Dfill%3Bhtml%3D1%3BwhiteSpace%3Dwrap%3B%22%20vertex%3D%221%22%20parent%3D%221%22%3E%3CmxGeometry%20x%3D%22320%22%20y%3D%22600%22%20width%3D%22160%22%20height%3D%22130%22%20as%3D%22geometry%22%2F%3E%3C%2FmxCell%3E%3C%2Froot%3E%3C%2FmxGraphModel%3&lt;/span&gt;&lt;/p&gt;&lt;hr size=&quot;1&quot; style=&quot;border-style:solid;&quot;&gt;&lt;p style=&quot;margin:0px;margin-left:8px;&quot;&gt;id = &quot;LOC30045&quot;&lt;/p&gt;&lt;p style=&quot;margin:0px;margin-left:8px;&quot;&gt;name = &quot;Conference Room B&quot;&lt;/p&gt;&lt;p style=&quot;margin:0px;margin-left:8px;&quot;&gt;type = &quot;Virtual&quot;&lt;/p&gt;&lt;p style=&quot;margin:0px;margin-left:8px;&quot;&gt;link = &quot;https://meet.example.com/xyz&quot;&lt;/p&gt;&lt;p style=&quot;margin:0px;margin-left:8px;&quot;&gt;capacity = 10&lt;/p&gt;" style="verticalAlign=top;align=left;overflow=fill;html=1;whiteSpace=wrap;" vertex="1" parent="1">
          <mxGeometry x="310" y="790" width="180" height="120" as="geometry" />
        </mxCell>
        <mxCell id="6zkZgSKief6OvJ9APfow-25" value="&lt;p style=&quot;margin:0px;margin-top:4px;text-align:center;text-decoration:underline;&quot;&gt;reminder : Notification&amp;nbsp;&lt;/p&gt;&lt;hr size=&quot;1&quot; style=&quot;border-style:solid;&quot;&gt;&lt;p style=&quot;margin:0px;margin-left:8px;&quot;&gt;id = &quot;NOT90078&quot;&lt;/p&gt;&lt;p style=&quot;margin:0px;margin-left:8px;&quot;&gt;recipientId = &quot;JS20056&quot;&lt;/p&gt;&lt;p style=&quot;margin:0px;margin-left:8px;&quot;&gt;type = &quot;Interview Reminder&quot;&lt;/p&gt;&lt;p style=&quot;margin:0px;margin-left:8px;&quot;&gt;message = &quot;Your interview&amp;nbsp;is tomorrow at 2:00 PM.&quot;&lt;/p&gt;&lt;p style=&quot;margin:0px;margin-left:8px;&quot;&gt;scheduledDate = &quot;2025-05-20&quot;&lt;/p&gt;&lt;p style=&quot;margin:0px;margin-left:8px;&quot;&gt; status = &quot;Pending&quot;&amp;nbsp;&lt;/p&gt;" style="verticalAlign=top;align=left;overflow=fill;html=1;whiteSpace=wrap;" vertex="1" parent="1">
          <mxGeometry x="320" y="970" width="160" height="160" as="geometry" />
        </mxCell>
        <mxCell id="6zkZgSKief6OvJ9APfow-26" value="" style="endArrow=classic;html=1;rounded=0;exitX=0.5;exitY=1;exitDx=0;exitDy=0;entryX=0.5;entryY=0;entryDx=0;entryDy=0;" edge="1" parent="1" source="6zkZgSKief6OvJ9APfow-17" target="6zkZgSKief6OvJ9APfow-22">
          <mxGeometry width="50" height="50" relative="1" as="geometry">
            <mxPoint x="360" y="550" as="sourcePoint" />
            <mxPoint x="310" y="600" as="targetPoint" />
          </mxGeometry>
        </mxCell>
        <mxCell id="6zkZgSKief6OvJ9APfow-27" value="" style="endArrow=classic;html=1;rounded=0;exitX=0;exitY=0.5;exitDx=0;exitDy=0;" edge="1" parent="1" source="6zkZgSKief6OvJ9APfow-22">
          <mxGeometry width="50" height="50" relative="1" as="geometry">
            <mxPoint x="316" y="665.5" as="sourcePoint" />
            <mxPoint x="210" y="664.5" as="targetPoint" />
          </mxGeometry>
        </mxCell>
        <mxCell id="6zkZgSKief6OvJ9APfow-28" value="" style="endArrow=classic;html=1;rounded=0;exitX=0.5;exitY=1;exitDx=0;exitDy=0;entryX=0.5;entryY=0;entryDx=0;entryDy=0;" edge="1" parent="1">
          <mxGeometry width="50" height="50" relative="1" as="geometry">
            <mxPoint x="399.5" y="730" as="sourcePoint" />
            <mxPoint x="399.5" y="790" as="targetPoint" />
          </mxGeometry>
        </mxCell>
        <mxCell id="6zkZgSKief6OvJ9APfow-29" value="" style="endArrow=classic;html=1;rounded=0;exitX=0.5;exitY=1;exitDx=0;exitDy=0;entryX=0.5;entryY=0;entryDx=0;entryDy=0;" edge="1" parent="1">
          <mxGeometry width="50" height="50" relative="1" as="geometry">
            <mxPoint x="399.5" y="910" as="sourcePoint" />
            <mxPoint x="399.5" y="970" as="targetPoint" />
          </mxGeometry>
        </mxCell>
        <mxCell id="6zkZgSKief6OvJ9APfow-30" value="represents" style="text;html=1;align=center;verticalAlign=middle;whiteSpace=wrap;rounded=0;" vertex="1" parent="1">
          <mxGeometry x="410" y="160" width="60" height="30" as="geometry" />
        </mxCell>
        <mxCell id="6zkZgSKief6OvJ9APfow-31" value="associated with" style="text;html=1;align=center;verticalAlign=middle;whiteSpace=wrap;rounded=0;" vertex="1" parent="1">
          <mxGeometry x="395" y="360" width="95" height="30" as="geometry" />
        </mxCell>
        <mxCell id="6zkZgSKief6OvJ9APfow-32" value="for    " style="text;html=1;align=center;verticalAlign=middle;whiteSpace=wrap;rounded=0;" vertex="1" parent="1">
          <mxGeometry x="230" y="460" width="60" height="30" as="geometry" />
        </mxCell>
        <mxCell id="6zkZgSKief6OvJ9APfow-33" value="scheduled in&lt;div&gt;&lt;br/&gt;&lt;/div&gt;" style="text;html=1;align=center;verticalAlign=middle;whiteSpace=wrap;rounded=0;" vertex="1" parent="1">
          <mxGeometry x="400" y="560" width="80" height="30" as="geometry" />
        </mxCell>
        <mxCell id="6zkZgSKief6OvJ9APfow-34" value="assigned" style="text;html=1;align=center;verticalAlign=middle;whiteSpace=wrap;rounded=0;" vertex="1" parent="1">
          <mxGeometry x="230" y="640" width="60" height="30" as="geometry" />
        </mxCell>
        <mxCell id="6zkZgSKief6OvJ9APfow-35" value="takes place in" style="text;html=1;align=center;verticalAlign=middle;whiteSpace=wrap;rounded=0;" vertex="1" parent="1">
          <mxGeometry x="396.5" y="750" width="87" height="30" as="geometry" />
        </mxCell>
        <mxCell id="6zkZgSKief6OvJ9APfow-36" value="generates" style="text;html=1;align=center;verticalAlign=middle;whiteSpace=wrap;rounded=0;" vertex="1" parent="1">
          <mxGeometry x="400" y="930" width="60" height="30" as="geometry" />
        </mxCell>
      </root>
    </mxGraphModel>
  </diagram>
</mxfile>
